<svg width="90" height="30" viewBox="0 0 90 30" fill="none" xmlns="http://www.w3.org/2000/svg">
<path d="M14.375 7.27273V12.9545H0V7.27273H14.375ZM2.78409 2.04546H10.625V22.0739C10.625 22.3769 10.6771 22.6326 10.7812 22.8409C10.8854 23.0398 11.0464 23.1913 11.2642 23.2955C11.482 23.3902 11.7614 23.4375 12.1023 23.4375C12.339 23.4375 12.6136 23.4091 12.9261 23.3523C13.2481 23.2955 13.4848 23.2481 13.6364 23.2102L14.7727 28.7216C14.4223 28.8258 13.9205 28.9536 13.267 29.1051C12.6231 29.2566 11.8561 29.3561 10.9659 29.4034C9.16667 29.4981 7.65625 29.3134 6.43466 28.8494C5.21307 28.3759 4.29451 27.6326 3.67898 26.6193C3.06345 25.6061 2.76515 24.3371 2.78409 22.8125V2.04546ZM27.8516 29.4886C25.4841 29.4886 23.4576 29.0199 21.772 28.0824C20.0864 27.1354 18.7938 25.8191 17.8942 24.1335C16.9946 22.4384 16.5447 20.4735 16.5447 18.2386C16.5447 16.0038 16.9946 14.0436 17.8942 12.358C18.7938 10.6629 20.0864 9.34659 21.772 8.40909C23.4576 7.46212 25.4841 6.98864 27.8516 6.98864C30.219 6.98864 32.2455 7.46212 33.9311 8.40909C35.6167 9.34659 36.9093 10.6629 37.8089 12.358C38.7086 14.0436 39.1584 16.0038 39.1584 18.2386C39.1584 20.4735 38.7086 22.4384 37.8089 24.1335C36.9093 25.8191 35.6167 27.1354 33.9311 28.0824C32.2455 29.0199 30.219 29.4886 27.8516 29.4886ZM27.9084 23.6932C28.5713 23.6932 29.1442 23.4706 29.6271 23.0256C30.1101 22.5805 30.4841 21.946 30.7493 21.1222C31.0144 20.2983 31.147 19.3182 31.147 18.1818C31.147 17.036 31.0144 16.0559 30.7493 15.2415C30.4841 14.4176 30.1101 13.7831 29.6271 13.3381C29.1442 12.893 28.5713 12.6705 27.9084 12.6705C27.2076 12.6705 26.6063 12.893 26.1044 13.3381C25.6025 13.7831 25.219 14.4176 24.9538 15.2415C24.6887 16.0559 24.5561 17.036 24.5561 18.1818C24.5561 19.3182 24.6887 20.2983 24.9538 21.1222C25.219 21.946 25.6025 22.5805 26.1044 23.0256C26.6063 23.4706 27.2076 23.6932 27.9084 23.6932Z" fill="#4EA8DE"/>
<path d="M50.2379 29.375C48.6849 29.375 47.255 28.9678 45.9482 28.1534C44.6508 27.339 43.6091 26.1032 42.8232 24.446C42.0466 22.7888 41.6584 20.7008 41.6584 18.1818C41.6584 15.5492 42.0656 13.4091 42.88 11.7614C43.7038 10.1136 44.7644 8.90625 46.0618 8.13921C47.3686 7.37216 48.7417 6.98864 50.1811 6.98864C51.2607 6.98864 52.2076 7.17803 53.022 7.55682C53.8364 7.92614 54.5182 8.4233 55.0675 9.0483C55.6167 9.66383 56.0334 10.3409 56.3175 11.0795H56.4311V1.90735e-06H64.272V29.0909H56.4879V25.5114H56.3175C56.0144 26.25 55.5788 26.9129 55.0107 27.5C54.4519 28.0777 53.7701 28.5369 52.9652 28.8778C52.1697 29.2093 51.2607 29.375 50.2379 29.375ZM53.1357 23.3523C53.8554 23.3523 54.4709 23.1439 54.9822 22.7273C55.5031 22.3011 55.9008 21.7045 56.1754 20.9375C56.4595 20.161 56.6016 19.2424 56.6016 18.1818C56.6016 17.1023 56.4595 16.179 56.1754 15.4119C55.9008 14.6354 55.5031 14.0436 54.9822 13.6364C54.4709 13.2197 53.8554 13.0114 53.1357 13.0114C52.416 13.0114 51.8004 13.2197 51.2891 13.6364C50.7872 14.0436 50.3989 14.6354 50.1243 15.4119C49.8591 16.179 49.7266 17.1023 49.7266 18.1818C49.7266 19.2614 49.8591 20.1894 50.1243 20.9659C50.3989 21.733 50.7872 22.3248 51.2891 22.7415C51.8004 23.1487 52.416 23.3523 53.1357 23.3523ZM78.6328 29.4886C76.2654 29.4886 74.2389 29.0199 72.5533 28.0824C70.8677 27.1354 69.575 25.8191 68.6754 24.1335C67.7758 22.4384 67.326 20.4735 67.326 18.2386C67.326 16.0038 67.7758 14.0436 68.6754 12.358C69.575 10.6629 70.8677 9.34659 72.5533 8.40909C74.2389 7.46212 76.2654 6.98864 78.6328 6.98864C81.0002 6.98864 83.0268 7.46212 84.7124 8.40909C86.398 9.34659 87.6906 10.6629 88.5902 12.358C89.4898 14.0436 89.9396 16.0038 89.9396 18.2386C89.9396 20.4735 89.4898 22.4384 88.5902 24.1335C87.6906 25.8191 86.398 27.1354 84.7124 28.0824C83.0268 29.0199 81.0002 29.4886 78.6328 29.4886ZM78.6896 23.6932C79.3525 23.6932 79.9254 23.4706 80.4084 23.0256C80.8913 22.5805 81.2654 21.946 81.5305 21.1222C81.7957 20.2983 81.9283 19.3182 81.9283 18.1818C81.9283 17.036 81.7957 16.0559 81.5305 15.2415C81.2654 14.4176 80.8913 13.7831 80.4084 13.3381C79.9254 12.893 79.3525 12.6705 78.6896 12.6705C77.9889 12.6705 77.3875 12.893 76.8857 13.3381C76.3838 13.7831 76.0002 14.4176 75.7351 15.2415C75.4699 16.0559 75.3374 17.036 75.3374 18.1818C75.3374 19.3182 75.4699 20.2983 75.7351 21.1222C76.0002 21.946 76.3838 22.5805 76.8857 23.0256C77.3875 23.4706 77.9889 23.6932 78.6896 23.6932Z" fill="#5E60CE"/>
</svg>
